HIERARCHY
ROOT Hips
{
    OFFSET 0.000000 0.000000 0.000000
    CHANNELS 6 Xposition Yposition Zposition Zrotation Xrotation Yrotation
    JOINT Spine
    {
        OFFSET -0.000000 7.305679 0.000000
        CHANNELS 3 Zrotation Xrotation Yrotation
        JOINT Spine1
        {
            OFFSET -0.000000 20.356625 0.000000
            CHANNELS 3 Zrotation Xrotation Yrotation
            JOINT Neck
            {
                OFFSET -0.000000 22.138498 0.000000
                CHANNELS 3 Zrotation Xrotation Yrotation
                JOINT Head
                {
                    OFFSET -0.000000 13.809516 1.781873
                    CHANNELS 3 Zrotation Xrotation Yrotation
                    End Site
                    {
                        OFFSET -0.000000 17.818729 0.000000
                    }
                }
            }
            JOINT LeftShoulder
            {
                OFFSET 3.599131 17.989975 0.023592
                CHANNELS 3 Zrotation Xrotation Yrotation
                JOINT LeftArm
                {
                    OFFSET 12.560995 0.000000 0.000000
                    CHANNELS 3 Zrotation Xrotation Yrotation
                    JOINT LeftForeArm
                    {
                        OFFSET 22.903347 0.000000 0.000000
                        CHANNELS 3 Zrotation Xrotation Yrotation
                        JOINT LeftHand
                        {
                            OFFSET 21.865294 0.000000 0.000000
                            CHANNELS 3 Zrotation Xrotation Yrotation
                            JOINT LeftHandThumb1
                            {
                                OFFSET 1.853706 -2.106484 2.949078
                                CHANNELS 3 Zrotation Xrotation Yrotation
                                JOINT LeftHandThumb2
                                {
                                    OFFSET 2.049154 0.000000 1.336405
                                    CHANNELS 3 Zrotation Xrotation Yrotation
                                    JOINT LeftHandThumb3
                                    {
                                        OFFSET 2.672809 0.000000 0.000000
                                        CHANNELS 3 Zrotation Xrotation Yrotation
                                        End Site
                                        {
                                            OFFSET 2.381303 0.000000 0.000000
                                        }
                                    }
                                }
                            }
                            JOINT LeftHandIndex1
                            {
                                OFFSET 7.583345 0.000000 2.949078
                                CHANNELS 3 Zrotation Xrotation Yrotation
                                JOINT LeftHandIndex2
                                {
                                    OFFSET 4.454682 0.000000 0.000000
                                    CHANNELS 3 Zrotation Xrotation Yrotation
                                    JOINT LeftHandIndex3
                                    {
                                        OFFSET 2.227341 0.000000 0.000000
                                        CHANNELS 3 Zrotation Xrotation Yrotation
                                        End Site
                                        {
                                            OFFSET 1.984419 0.000000 0.000000
                                        }
                                    }
                                }
                            }
                            JOINT LeftHandMiddle1
                            {
                                OFFSET 7.583345 0.000000 0.977409
                                CHANNELS 3 Zrotation Xrotation Yrotation
                                JOINT LeftHandMiddle2
                                {
                                    OFFSET 4.900151 0.000000 0.000000
                                    CHANNELS 3 Zrotation Xrotation Yrotation
                                    JOINT LeftHandMiddle3
                                    {
                                        OFFSET 2.672809 0.000000 0.000000
                                        CHANNELS 3 Zrotation Xrotation Yrotation
                                        End Site
                                        {
                                            OFFSET 2.381303 0.000000 0.000000
                                        }
                                    }
                                }
                            }
                            JOINT LeftHandRing1
                            {
                                OFFSET 7.162047 0.000000 -0.977409
                                CHANNELS 3 Zrotation Xrotation Yrotation
                                JOINT LeftHandRing2
                                {
                                    OFFSET 4.454682 0.000000 0.000000
                                    CHANNELS 3 Zrotation Xrotation Yrotation
                                    JOINT LeftHandRing3
                                    {
                                        OFFSET 2.227341 0.000000 0.000000
                                        CHANNELS 3 Zrotation Xrotation Yrotation
                                        End Site
                                        {
                                            OFFSET 1.984419 0.000000 0.000000
                                        }
                                    }
                                }
                            }
                            JOINT LeftHandPinky1
                            {
                                OFFSET 6.740750 0.000000 -2.949078
                                CHANNELS 3 Zrotation Xrotation Yrotation
                                JOINT LeftHandPinky2
                                {
                                    OFFSET 3.563746 0.000000 0.000000
                                    CHANNELS 3 Zrotation Xrotation Yrotation
                                    JOINT LeftHandPinky3
                                    {
                                        OFFSET 1.781873 0.000000 0.000000
                                        CHANNELS 3 Zrotation Xrotation Yrotation
                                        End Site
                                        {
                                            OFFSET 1.587536 0.000000 0.000000
                                        }
                                    }
                                }
                            }
                        }
                    }
                }
            }
            JOINT RightShoulder
            {
                OFFSET -3.506995 17.989975 0.023592
                CHANNELS 3 Zrotation Xrotation Yrotation
                JOINT RightArm
                {
                    OFFSET -12.560995 0.000000 0.000000
                    CHANNELS 3 Zrotation Xrotation Yrotation
                    JOINT RightForeArm
                    {
                        OFFSET -22.903347 0.000000 0.000000
                        CHANNELS 3 Zrotation Xrotation Yrotation
                        JOINT RightHand
                        {
                            OFFSET -21.865294 0.000000 0.000000
                            CHANNELS 3 Zrotation Xrotation Yrotation
                            JOINT RightHandThumb1
                            {
                                OFFSET -1.853706 -2.106484 2.949078
                                CHANNELS 3 Zrotation Xrotation Yrotation
                                JOINT RightHandThumb2
                                {
                                    OFFSET -2.049154 0.000000 1.336405
                                    CHANNELS 3 Zrotation Xrotation Yrotation
                                    JOINT RightHandThumb3
                                    {
                                        OFFSET -2.672809 0.000000 0.000000
                                        CHANNELS 3 Zrotation Xrotation Yrotation
                                        End Site
                                        {
                                            OFFSET -2.381303 0.000000 0.000000
                                        }
                                    }
                                }
                            }
                            JOINT RightHandIndex1
                            {
                                OFFSET -7.583345 0.000000 2.949078
                                CHANNELS 3 Zrotation Xrotation Yrotation
                                JOINT RightHandIndex2
                                {
                                    OFFSET -4.454682 0.000000 0.000000
                                    CHANNELS 3 Zrotation Xrotation Yrotation
                                    JOINT RightHandIndex3
                                    {
                                        OFFSET -2.227341 0.000000 0.000000
                                        CHANNELS 3 Zrotation Xrotation Yrotation
                                        End Site
                                        {
                                            OFFSET -1.984419 0.000000 0.000000
                                        }
                                    }
                                }
                            }
                            JOINT RightHandMiddle1
                            {
                                OFFSET -7.583345 0.000000 0.977409
                                CHANNELS 3 Zrotation Xrotation Yrotation
                                JOINT RightHandMiddle2
                                {
                                    OFFSET -4.900151 0.000000 0.000000
                                    CHANNELS 3 Zrotation Xrotation Yrotation
                                    JOINT RightHandMiddle3
                                    {
                                        OFFSET -2.672809 0.000000 0.000000
                                        CHANNELS 3 Zrotation Xrotation Yrotation
                                        End Site
                                        {
                                            OFFSET -2.381303 0.000000 0.000000
                                        }
                                    }
                                }
                            }
                            JOINT RightHandRing1
                            {
                                OFFSET -7.162047 0.000000 -0.977409
                                CHANNELS 3 Zrotation Xrotation Yrotation
                                JOINT RightHandRing2
                                {
                                    OFFSET -4.454682 0.000000 0.000000
                                    CHANNELS 3 Zrotation Xrotation Yrotation
                                    JOINT RightHandRing3
                                    {
                                        OFFSET -2.227341 0.000000 0.000000
                                        CHANNELS 3 Zrotation Xrotation Yrotation
                                        End Site
                                        {
                                            OFFSET -1.984419 0.000000 0.000000
                                        }
                                    }
                                }
                            }
                            JOINT RightHandPinky1
                            {
                                OFFSET -6.740750 0.000000 -2.949078
                                CHANNELS 3 Zrotation Xrotation Yrotation
                                JOINT RightHandPinky2
                                {
                                    OFFSET -3.563746 0.000000 0.000000
                                    CHANNELS 3 Zrotation Xrotation Yrotation
                                    JOINT RightHandPinky3
                                    {
                                        OFFSET -1.781873 0.000000 0.000000
                                        CHANNELS 3 Zrotation Xrotation Yrotation
                                        End Site
                                        {
                                            OFFSET -1.587536 0.000000 0.000000
                                        }
                                    }
                                }
                            }
                        }
                    }
                }
            }
        }
    }
    JOINT LeftUpLeg
    {
        OFFSET 8.909365 0.000000 0.000000
        CHANNELS 3 Zrotation Xrotation Yrotation
        JOINT LeftLeg
        {
            OFFSET -0.000000 -38.765560 0.000000
            CHANNELS 3 Zrotation Xrotation Yrotation
            JOINT LeftFoot
            {
                OFFSET -0.000000 -35.244961 0.000000
                CHANNELS 3 Zrotation Xrotation Yrotation
                JOINT LeftToeBase
                {
                    OFFSET -0.000000 -5.791087 13.364048
                    CHANNELS 3 Zrotation Xrotation Yrotation
                    End Site
                    {
                        OFFSET -0.000000 0.000000 3.563746
                    }
                }
            }
        }
    }
    JOINT RightUpLeg
    {
        OFFSET -8.909365 0.000000 0.000000
        CHANNELS 3 Zrotation Xrotation Yrotation
        JOINT RightLeg
        {
            OFFSET -0.000000 -38.765560 0.000000
            CHANNELS 3 Zrotation Xrotation Yrotation
            JOINT RightFoot
            {
                OFFSET -0.000000 -35.244961 0.000000
                CHANNELS 3 Zrotation Xrotation Yrotation
                JOINT RightToeBase
                {
                    OFFSET -0.000000 -5.791087 13.364048
                    CHANNELS 3 Zrotation Xrotation Yrotation
                    End Site
                    {
                        OFFSET -0.000000 0.000000 3.563746
                    }
                }
            }
        }
    }
}
MOTION
Frames:    5
Frame Time:    0.008333
-22.049093    72.895706    97.993820    -21.919567    20.015873    -12.967872    -17.040300    21.578554    -13.191606    20.743124    -0.025931    -5.474734    -1.366269    -10.814625    17.101854    15.217938    -7.753977    16.763241    11.288112    11.294240    -14.829015    -94.022217    46.122337    28.353067    70.079948    20.976196    -74.046814    35.086082    -0.439284    10.649579    -17.631702    13.957697    -4.743451    0.000000    0.000000    0.000000    0.000000    0.000000    0.000000    44.999233    -0.297393    -0.297397    0.000000    0.000000    0.000000    0.000000    0.000000    0.000000    13.126783    -3.526327    8.767666    -35.688728    0.000000    0.000000    -17.844364    0.000000    0.000000    -18.277643    -11.029816    14.836567    -71.377472    0.000000    0.000000    -35.688728    0.000000    0.000000    -51.103615    -20.863590    16.031214    -108.147667    0.000000    0.000000    -54.073833    0.000000    0.000000    -6.098070    1.912928    -7.884984    88.367889    29.526888    -7.527447    -12.159527    -32.611599    7.454801    13.767118    -43.689911    2.504298    -6.445690    0.930962    -5.139990    0.000000    0.000000    -8.350096    0.000000    0.000000    -16.700191    -2.644935    0.000000    0.000000    0.000000    0.000000    0.000000    0.000000    0.000000    0.000000    4.757560    -0.967231    -4.405898    13.196540    0.000000    -0.000000    6.598270    0.000000    -0.000000    12.069030    -2.490892    -8.653436    26.393076    0.000000    -0.000000    13.196538    0.000000    -0.000000    19.477646    -4.608286    -12.798312    39.989510    0.000000    -0.000000    19.994757    0.000000    -0.000000    70.197220    -21.895803    46.566181    -15.097882    51.138649    28.544447    -21.564739    -3.935579    -32.852936    0.429743    0.466548    -1.000999    4.464665    -29.692413    12.580662    1.436978    8.103844    4.426442    26.570356    -0.287821    14.154421    -0.445464    -1.598102    0.545246    
-22.178736    72.988548    98.033638    -21.875368    20.101519    -12.801977    -17.185085    21.445354    -13.366017    20.845427    -0.179277    -5.507528    -1.344882    -10.333426    17.104740    15.196031    -7.675073    16.751629    11.244578    12.124505    -14.233865    -94.022636    45.485340    28.442671    70.102959    19.902016    -74.085663    35.002754    0.343622    11.331992    -17.793430    13.989412    -4.970300    0.000000    0.000000    0.000000    0.000000    0.000000    0.000000    45.000004    0.000000    -0.000000    0.000000    0.000000    0.000000    0.000000    0.000000    0.000000    12.862630    -3.431582    8.926260    -36.203381    0.000000    0.000000    -18.101688    0.000000    0.000000    -18.807819    -11.061544    14.734069    -72.406761    0.000000    0.000000    -36.203377    0.000000    0.000000    -51.969376    -20.868530    15.568905    -109.707184    0.000000    0.000000    -54.853592    0.000000    0.000000    -5.869595    2.249023    -8.416364    88.514053    27.878567    -7.403176    -12.306566    -37.127018    9.481590    6.991722    -49.754429    -0.527113    -6.324606    0.977008    -5.142441    0.000000    0.000000    -7.955110    0.000000    0.000000    -15.910219    -2.918932    0.000000    0.000000    0.000000    0.000000    0.000000    0.000000    0.000000    0.000000    4.237442    -0.939206    -4.569785    12.526206    0.000000    -0.000000    6.263102    0.000000    -0.000000    11.301000    -2.437048    -8.989934    25.052412    0.000000    -0.000000    12.526204    0.000000    -0.000000    18.449516    -4.531721    -13.323998    37.958195    0.000000    -0.000000    18.979095    0.000000    -0.000000    69.957664    -22.130079    45.666130    -14.436134    50.592926    27.741838    -21.909149    -3.294334    -33.036434    0.436447    0.288449    -1.042011    4.518900    -29.809038    12.634825    1.398285    8.287959    4.420401    26.492552    -0.491431    14.072734    -0.444616    -1.609541    0.542759    
-22.305731    73.085709    98.067009    -21.806398    20.186014    -12.624444    -17.330999    21.321209    -13.550998    20.926554    -0.341495    -5.542425    -1.368274    -9.821070    17.098644    15.175162    -7.591302    16.727812    11.196713    12.994337    -13.614594    -93.995590    44.807281    28.498753    70.003120    18.820644    -74.128380    34.989445    1.072962    12.002391    -17.901365    13.993059    -5.156894    0.000000    0.000000    0.000000    0.000000    0.000000    0.000000    45.000004    0.000000    -0.000000    0.000000    0.000000    0.000000    0.000000    0.000000    0.000000    12.608661    -3.478501    8.817141    -36.299995    0.000000    0.000000    -18.349134    0.000000    0.000000    -19.330482    -11.116015    14.472212    -72.600006    0.000000    0.000000    -36.698269    0.000000    0.000000    -52.807217    -20.848900    15.113616    -110.000000    0.000000    0.000000    -55.603432    0.000000    0.000000    -5.642533    2.557452    -8.946206    88.614929    26.284174    -7.195493    -12.026019    -41.349281    12.115206    -1.157134    -54.780090    -4.472650    -5.819035    1.156158    -5.134883    0.000000    0.000000    -7.501133    0.000000    0.000000    -15.002264    -3.245763    0.000000    0.000000    0.000000    0.000000    0.000000    0.000000    0.000000    0.000000    3.782104    -0.925708    -4.747943    12.058978    0.000000    -0.000000    6.029490    0.000000    -0.000000    10.713846    -2.421789    -9.350001    24.117960    0.000000    -0.000000    12.058980    0.000000    -0.000000    17.720032    -4.527077    -13.875582    36.542362    0.000000    -0.000000    18.271183    0.000000    -0.000000    69.700478    -22.404720    44.690254    -13.815199    50.058041    26.982363    -22.285156    -2.675048    -33.250614    0.442293    0.096929    -1.083072    4.549276    -29.938795    12.690104    1.347935    8.482902    4.394970    26.420483    -0.697405    13.992366    -0.443894    -1.623500    0.540220    
-22.429062    73.186462    98.094215    -21.714783    20.265934    -12.433955    -17.466988    21.205225    -13.743666    20.969881    -0.505356    -5.579203    -1.427651    -9.283195    17.080259    15.150184    -7.494936    16.687389    11.148056    13.894520    -12.974425    -93.944946    44.093792    28.521305    69.762238    17.739332    -74.165695    35.037636    1.721511    12.651185    -17.947290    13.964716    -5.295255    0.000000    0.000000    0.000000    0.000000    0.000000    0.000000    42.827789    0.000000    -0.000000    0.000000    0.000000    0.000000    0.000000    0.000000    0.000000    10.902179    -3.606156    8.606475    -36.299995    0.000000    0.000000    -18.581203    0.000000    0.000000    -20.588274    -11.196077    14.075741    -72.600006    0.000000    0.000000    -37.162399    0.000000    0.000000    -53.605015    -20.780863    14.656260    -110.000000    0.000000    0.000000    -56.306664    0.000000    0.000000    -5.428366    2.824195    -9.455110    88.629395    24.779472    -6.921157    -11.208770    -44.984627    15.366308    -10.108562    -58.442856    -8.968389    -5.161745    1.401141    -5.144978    0.000000    0.000000    -7.056331    0.000000    0.000000    -14.112661    -3.704066    0.000000    0.000000    0.000000    0.000000    0.000000    0.000000    0.000000    0.000000    3.339201    -0.926284    -4.943634    11.796303    0.000000    -0.000000    5.898153    0.000000    -0.000000    10.281164    -2.447828    -9.739633    23.592606    0.000000    -0.000000    11.796306    0.000000    -0.000000    17.288797    -4.603904    -14.460638    35.746372    0.000000    -0.000000    17.873190    0.000000    -0.000000    69.339462    -22.655622    43.624012    -13.149247    49.361721    26.145611    -22.671881    -2.033954    -33.416042    0.446795    -0.102118    -1.122177    4.554944    -30.076441    12.745084    1.286487    8.686376    4.339327    26.354214    -0.900806    13.921969    -0.443399    -1.639831    0.537807    
-22.547661    73.289948    98.115692    -21.603630    20.338003    -12.230854    -17.580275    21.094187    -13.937438    20.955742    -0.660973    -5.616854    -1.511451    -8.727632    17.044825    15.115558    -7.380865    16.625307    11.103108    14.812697    -12.318354    -93.875580    43.352924    28.512024    69.367363    16.662664    -74.186180    35.139053    2.267600    13.274074    -17.929529    13.904248    -5.381902    0.000000    0.000000    0.000000    0.000000    0.000000    0.000000    39.041656    0.000000    -0.000000    0.000000    0.000000    0.000000    0.000000    0.000000    0.000000    8.120937    -3.778936    8.312309    -36.299995    0.000000    0.000000    -18.795391    0.000000    0.000000    -22.383825    -11.271274    13.571093    -72.600006    0.000000    0.000000    -37.590775    0.000000    0.000000    -54.358227    -20.647346    14.189110    -110.000000    0.000000    0.000000    -56.955723    0.000000    0.000000    -5.239464    3.041460    -9.923027    88.507584    23.417130    -6.573154    -9.869895    -47.797115    19.306742    -19.303514    -60.661064    -13.730293    -4.539304    1.659137    -5.195940    0.000000    0.000000    -6.689970    0.000000    0.000000    -13.379941    -4.332868    0.000000    0.000000    0.000000    0.000000    0.000000    0.000000    0.000000    0.000000    2.849509    -0.934650    -5.156578    11.671737    0.000000    -0.000000    5.835869    0.000000    -0.000000    9.923839    -2.502324    -10.159375    23.343479    0.000000    -0.000000    11.671737    0.000000    -0.000000    17.056295    -4.742504    -15.081788    35.368904    0.000000    -0.000000    17.684452    0.000000    -0.000000    68.978683    -22.938276    42.526623    -12.544382    48.711033    25.398840    -23.082951    -1.446083    -33.649448    0.449583    -0.300743    -1.157273    4.536317    -30.216633    12.798963    1.215447    8.895947    4.243657    26.293863    -1.096449    13.870150    -0.442956    -1.658533    0.535240    
